<?xml version="1.0" encoding="UTF-8"?>
<svg id="Layer_1" data-name="Layer 1" xmlns="http://www.w3.org/2000/svg" xmlns:xlink="http://www.w3.org/1999/xlink" viewBox="0 0 1294.5 722.5">
  <defs>
    <style>
      .cls-1, .cls-2, .cls-3, .cls-4, .cls-5, .cls-6, .cls-7, .cls-8, .cls-9, .cls-10 {
        fill: none;
      }

      .cls-1, .cls-2, .cls-11, .cls-12 {
        stroke: #cabdb0;
      }

      .cls-13, .cls-14 {
        fill: #c0875e;
      }

      .cls-2, .cls-3, .cls-4, .cls-7, .cls-8, .cls-9, .cls-10 {
        stroke-linecap: round;
      }

      .cls-2, .cls-11, .cls-12, .cls-15, .cls-16 {
        stroke-width: 1.5px;
      }

      .cls-17, .cls-18, .cls-19, .cls-20, .cls-21, .cls-22, .cls-23 {
        fill: #d97757;
      }

      .cls-17, .cls-19, .cls-12, .cls-24, .cls-25, .cls-15, .cls-26, .cls-14 {
        opacity: .38;
      }

      .cls-3 {
        stroke: url(#linear-gradient);
      }

      .cls-3, .cls-8, .cls-10 {
        stroke-width: 1.8px;
      }

      .cls-3, .cls-9, .cls-10 {
        stroke-dasharray: 8 5;
      }

      .cls-4 {
        opacity: .3;
      }

      .cls-4, .cls-19, .cls-15, .cls-7, .cls-8, .cls-27, .cls-9, .cls-23, .cls-16 {
        stroke: #d97757;
      }

      .cls-4, .cls-5, .cls-28, .cls-29, .cls-30, .cls-25, .cls-31, .cls-32, .cls-20, .cls-33, .cls-7, .cls-34, .cls-8, .cls-35, .cls-21, .cls-9 {
        isolation: isolate;
      }

      .cls-36 {
        fill: url(#dots);
      }

      .cls-5 {
        stroke: #e4d8c8;
      }

      .cls-5, .cls-20 {
        opacity: .6;
      }

      .cls-11, .cls-12, .cls-24, .cls-15, .cls-37, .cls-16 {
        fill: #fff;
      }

      .cls-28 {
        font-family: CourierNewPS-BoldItalicMT, 'Courier New';
        font-size: 29.17px;
        font-style: italic;
        letter-spacing: .17em;
        opacity: .65;
      }

      .cls-28, .cls-30 {
        fill: #8a6a58;
      }

      .cls-28, .cls-32, .cls-33 {
        font-weight: 700;
      }

      .cls-24, .cls-37 {
        stroke: #e0d4c4;
      }

      .cls-38 {
        fill: url(#radial-gradient);
      }

      .cls-39 {
        fill: url(#radial-gradient-3);
      }

      .cls-29, .cls-30, .cls-25, .cls-34, .cls-35 {
        font-family: CourierNewPSMT, 'Courier New';
      }

      .cls-29, .cls-25 {
        font-size: 14px;
      }

      .cls-29, .cls-25, .cls-32 {
        fill: #3a2a22;
      }

      .cls-30 {
        font-size: 10px;
        letter-spacing: .3em;
        opacity: .7;
      }

      .cls-40, .cls-31, .cls-35 {
        fill: #4caf50;
      }

      .cls-31 {
        opacity: .15;
      }

      .cls-32 {
        letter-spacing: .31em;
        opacity: .85;
      }

      .cls-32, .cls-33 {
        font-family: CourierNewPS-BoldMT, 'Courier New';
      }

      .cls-32, .cls-34 {
        font-size: 13px;
      }

      .cls-33 {
        fill: #8a4a2a;
        font-size: 23.18px;
        letter-spacing: .14em;
      }

      .cls-41 {
        fill: url(#radial-gradient-2);
      }

      .cls-7 {
        opacity: .4;
      }

      .cls-42 {
        fill: #e4d8c8;
      }

      .cls-34 {
        fill: #bba898;
      }

      .cls-8 {
        opacity: .8;
      }

      .cls-26, .cls-43 {
        fill: #b85c38;
      }

      .cls-35 {
        font-size: 11px;
        letter-spacing: .14em;
        opacity: .9;
      }

      .cls-27 {
        fill: #fdf0e8;
        stroke-width: 2.53px;
      }

      .cls-44 {
        opacity: .26;
      }

      .cls-21, .cls-23 {
        opacity: .5;
      }

      .cls-9 {
        opacity: .45;
        stroke-width: 1.6px;
      }

      .cls-10 {
        stroke: url(#linear-gradient-2);
      }

      .cls-22 {
        fill-rule: evenodd;
      }

      .cls-45 {
        fill: #f8f3eb;
      }
    </style>
    <pattern id="dots" x="0" y="0" width="28" height="28" patternTransform="translate(-14 -15541.5) scale(1 -1)" patternUnits="userSpaceOnUse" viewBox="0 0 28 28">
      <g>
        <rect class="cls-6" width="28" height="28"/>
        <circle class="cls-42" cx="14" cy="14" r="1.2"/>
      </g>
    </pattern>
    <radialGradient id="radial-gradient" cx="294.03" cy="781.15" fx="294.03" fy="781.15" r=".5" gradientTransform="translate(-163641 343924.5) scale(560 -440)" gradientUnits="userSpaceOnUse">
      <stop offset="0" stop-color="#d97757" stop-opacity=".14"/>
      <stop offset="1" stop-color="#d97757" stop-opacity="0"/>
    </radialGradient>
    <radialGradient id="radial-gradient-2" cx="293.89" cy="780.85" fx="293.89" fy="780.85" r=".5" gradientTransform="translate(-140816 297049.5) scale(480 -380)" gradientUnits="userSpaceOnUse">
      <stop offset="0" stop-color="#d97757" stop-opacity=".05"/>
      <stop offset="1" stop-color="#d97757" stop-opacity="0"/>
    </radialGradient>
    <linearGradient id="linear-gradient" x1="293.42" y1="780.52" x2="294.37" y2="780.52" gradientTransform="translate(-162095 161887) scale(553 -207)" gradientUnits="userSpaceOnUse">
      <stop offset="0" stop-color="#d97757" stop-opacity="0"/>
      <stop offset="1" stop-color="#d97757" stop-opacity=".55"/>
    </linearGradient>
    <linearGradient id="linear-gradient-2" x1="293.1" y1="780.52" x2="294.02" y2="780.52" gradientTransform="translate(-103685 161887) scale(355 -207)" gradientUnits="userSpaceOnUse">
      <stop offset="0" stop-color="#d97757" stop-opacity="0"/>
      <stop offset="1" stop-color="#d97757" stop-opacity=".45"/>
    </linearGradient>
    <radialGradient id="radial-gradient-3" cx="293.48" cy="781.03" fx="293.48" fy="781.03" r=".5" gradientTransform="translate(-92961 203347.5) scale(320 -260)" gradientUnits="userSpaceOnUse">
      <stop offset="0" stop-color="#d97757" stop-opacity=".14"/>
      <stop offset="1" stop-color="#d97757" stop-opacity="0"/>
    </radialGradient>
  </defs>
  <rect class="cls-45" y="47.5" width="1200" height="675"/>
  <rect class="cls-36" y="47.5" width="1200" height="675"/>
  <ellipse class="cls-38" cx="1014.5" cy="220" rx="280" ry="220"/>
  <ellipse class="cls-41" cx="250" cy="327.5" rx="240" ry="190"/>
  <line class="cls-5" x1="717.43" y1="108.5" x2="717.43" y2="668.5"/>
  <g>
    <path class="cls-2" d="M193,174.5c51,0,51-7,102-7"/>
    <path class="cls-2" d="M391,174.5h119"/>
    <path class="cls-2" d="M193,184.5c102,67.5-108,93.5,7,145"/>
    <path class="cls-2" d="M391,174.5c129,66.19-106.41,96.41,9,155"/>
    <path class="cls-2" d="M300,329.5h100"/>
    <path class="cls-2" d="M478,329.5h112"/>
    <path class="cls-2" d="M620,173.58c97,36-105.5,104.42-30,148.92"/>
    <path class="cls-2" d="M118,474.5c44,0,44-156,82-156"/>
    <path class="cls-2" d="M118,474.5c70.99,27.19-45.67,55.63,15,83"/>
    <path class="cls-2" d="M213,557.5h80"/>
    <path class="cls-2" d="M405,557.5h75"/>
    <path class="cls-2" d="M300,329.5c178,107.5-161,146-7,221"/>
  </g>
  <g>
    <path class="cls-7" d="M193,174.5c51,0,51-7,102-7"/>
    <path class="cls-7" d="M300,329.5h100"/>
    <path class="cls-4" d="M478,329.5h112"/>
  </g>
  <path class="cls-3" d="M193,174.5c229.38,0,29.02,289,472.61,289"/>
  <path class="cls-10" d="M391,174.5c179,0,71.87,289,274.61,289"/>
  <path class="cls-9" d="M405,557.5c117.57,0,42.61-94,260.61-94"/>
  <circle class="cls-20" cx="193" cy="174.5" r="3.5"/>
  <circle class="cls-21" cx="391" cy="174.5" r="3.5"/>
  <path class="cls-8" d="M883.34,462.13c282.33,0,390.18-217.38,199.26-217.38"/>
  <circle class="cls-18" cx="1082.6" cy="244.75" r="5.28"/>
  <g>
    <rect class="cls-23" x="85" y="152.5" width="108" height="44" rx="2.5" ry="2.5"/>
    <path class="cls-18" d="M86.5,152.5h105c.83,0,1.5.67,1.5,1.5h0c0,.83-.67,1.5-1.5,1.5h-105c-.83,0-1.5-.67-1.5-1.5h0c0-.83.67-1.5,1.5-1.5Z"/>
    <text class="cls-29" transform="translate(88.59 179.5)"><tspan x="0" y="0">Divide Curve</tspan></text>
    <circle class="cls-16" cx="85" cy="167.5" r="4.5"/>
    <circle class="cls-16" cx="85" cy="181.5" r="4.5"/>
    <circle class="cls-11" cx="193" cy="164.5" r="4.5"/>
    <circle class="cls-11" cx="193" cy="174.5" r="4.5"/>
    <circle class="cls-11" cx="193" cy="184.5" r="4.5"/>
  </g>
  <g>
    <rect class="cls-23" x="295" y="152.5" width="96" height="44" rx="2.5" ry="2.5"/>
    <path class="cls-43" d="M296.5,152.5h93c.83,0,1.5.67,1.5,1.5h0c0,.83-.67,1.5-1.5,1.5h-93c-.83,0-1.5-.67-1.5-1.5h0c0-.83.67-1.5,1.5-1.5Z"/>
    <text class="cls-29" transform="translate(305.19 179.5)"><tspan x="0" y="0">Mesh Join</tspan></text>
    <circle class="cls-11" cx="295" cy="167.5" r="4.5"/>
    <circle class="cls-11" cx="295" cy="181.5" r="4.5"/>
    <circle class="cls-11" cx="391" cy="174.5" r="4.5"/>
  </g>
  <g>
    <rect class="cls-37" x="510" y="152.5" width="110" height="44" rx="2.5" ry="2.5"/>
    <path class="cls-13" d="M511.5,152.5h107c.83,0,1.5.67,1.5,1.5h0c0,.83-.67,1.5-1.5,1.5h-107c-.83,0-1.5-.67-1.5-1.5h0c0-.83.67-1.5,1.5-1.5Z"/>
    <text class="cls-29" transform="translate(518.79 179.5)"><tspan x="0" y="0">Deconstruct</tspan></text>
    <circle class="cls-11" cx="510" cy="174.5" r="4.5"/>
    <circle class="cls-11" cx="620" cy="164.5" r="4.5"/>
    <circle class="cls-11" cx="620" cy="174.5" r="4.5"/>
    <circle class="cls-11" cx="620" cy="184.5" r="4.5"/>
  </g>
  <g>
    <rect class="cls-37" x="40" y="452.5" width="78" height="44" rx="2.5" ry="2.5"/>
    <path class="cls-18" d="M41.5,452.5h75c.83,0,1.5.67,1.5,1.5h0c0,.83-.67,1.5-1.5,1.5H41.5c-.83,0-1.5-.67-1.5-1.5h0c0-.83.67-1.5,1.5-1.5Z"/>
    <text class="cls-29" transform="translate(62.2 479.5)"><tspan x="0" y="0">Loft</tspan></text>
    <circle class="cls-11" cx="40" cy="467.5" r="4.5"/>
    <circle class="cls-11" cx="40" cy="481.5" r="4.5"/>
    <circle class="cls-16" cx="118" cy="474.5" r="4.5"/>
  </g>
  <g>
    <rect class="cls-37" x="200" y="307.5" width="100" height="44" rx="2.5" ry="2.5"/>
    <path class="cls-18" d="M201.5,307.5h97c.83,0,1.5.67,1.5,1.5h0c0,.83-.67,1.5-1.5,1.5h-97c-.83,0-1.5-.67-1.5-1.5h0c0-.83.67-1.5,1.5-1.5Z"/>
    <text class="cls-29" transform="translate(207.99 334.5)"><tspan x="0" y="0">Offset Srf</tspan></text>
    <circle class="cls-11" cx="200" cy="318.5" r="4.5"/>
    <circle class="cls-11" cx="200" cy="329.5" r="4.5"/>
    <circle class="cls-11" cx="200" cy="340.5" r="4.5"/>
    <circle class="cls-16" cx="300" cy="329.5" r="4.5"/>
  </g>
  <g>
    <rect class="cls-37" x="400" y="307.5" width="78" height="44" rx="2.5" ry="2.5"/>
    <path class="cls-13" d="M401.5,307.5h75c.83,0,1.5.67,1.5,1.5h0c0,.83-.67,1.5-1.5,1.5h-75c-.83,0-1.5-.67-1.5-1.5h0c0-.83.67-1.5,1.5-1.5Z"/>
    <text class="cls-29" transform="translate(422.2 334.5)"><tspan x="0" y="0">Area</tspan></text>
    <circle class="cls-11" cx="400" cy="329.5" r="4.5"/>
    <circle class="cls-11" cx="478" cy="322.5" r="4.5"/>
    <circle class="cls-16" cx="478" cy="336.5" r="4.5"/>
  </g>
  <g>
    <rect class="cls-37" x="590" y="307.5" width="88" height="44" rx="2.5" ry="2.5"/>
    <path class="cls-43" d="M591.5,307.5h85c.83,0,1.5.67,1.5,1.5h0c0,.83-.67,1.5-1.5,1.5h-85c-.83,0-1.5-.67-1.5-1.5h0c0-.83.67-1.5,1.5-1.5Z"/>
    <text class="cls-29" transform="translate(596.19 334.5)"><tspan x="0" y="0">Sort List</tspan></text>
    <circle class="cls-11" cx="590" cy="322.5" r="4.5"/>
    <circle class="cls-11" cx="590" cy="336.5" r="4.5"/>
    <circle class="cls-16" cx="678" cy="322.5" r="4.5"/>
    <circle class="cls-11" cx="678" cy="336.5" r="4.5"/>
  </g>
  <rect class="cls-24" x="133" y="535.5" width="80" height="44" rx="2.5" ry="2.5"/>
  <path class="cls-17" d="M134.5,535.5h77c.83,0,1.5.67,1.5,1.5h0c0,.83-.67,1.5-1.5,1.5h-77c-.83,0-1.5-.67-1.5-1.5h0c0-.83.67-1.5,1.5-1.5Z"/>
  <text class="cls-25" transform="translate(156.2 562.5)"><tspan x="0" y="0">Brep</tspan></text>
  <circle class="cls-12" cx="133" cy="557.5" r="4.5"/>
  <circle class="cls-15" cx="213" cy="557.5" r="4.5"/>
  <rect class="cls-19" x="293" y="535.5" width="112" height="44" rx="2.5" ry="2.5"/>
  <path class="cls-14" d="M294.5,535.5h109c.83,0,1.5.67,1.5,1.5h0c0,.83-.67,1.5-1.5,1.5h-109c-.83,0-1.5-.67-1.5-1.5h0c0-.83.67-1.5,1.5-1.5Z"/>
  <text class="cls-25" transform="translate(298.59 562.5)"><tspan x="0" y="0">Cull Pattern</tspan></text>
  <circle class="cls-12" cx="293" cy="550.5" r="4.5"/>
  <circle class="cls-12" cx="293" cy="564.5" r="4.5"/>
  <circle class="cls-12" cx="405" cy="557.5" r="4.5"/>
  <rect class="cls-24" x="480" y="535.5" width="96" height="44" rx="2.5" ry="2.5"/>
  <path class="cls-26" d="M481.5,535.5h93c.83,0,1.5.67,1.5,1.5h0c0,.83-.67,1.5-1.5,1.5h-93c-.83,0-1.5-.67-1.5-1.5h0c0-.83.67-1.5,1.5-1.5Z"/>
  <text class="cls-25" transform="translate(498.6 562.5)"><tspan x="0" y="0">Voronoi</tspan></text>
  <circle class="cls-12" cx="480" cy="557.5" r="4.5"/>
  <circle class="cls-12" cx="576" cy="557.5" r="4.5"/>
  <g class="cls-44">
    <rect class="cls-37" x="133" y="632.5" width="96" height="40" rx="2" ry="2"/>
    <text class="cls-34" transform="translate(149.79 656.5)"><tspan x="0" y="0">Dispatch</tspan></text>
    <rect class="cls-37" x="315" y="632.5" width="112" height="40" rx="2" ry="2"/>
    <text class="cls-34" transform="translate(328.09 656.5)"><tspan x="0" y="0">Interpolate</tspan></text>
    <rect class="cls-37" x="520" y="632.5" width="96" height="40" rx="2" ry="2"/>
    <text class="cls-34" transform="translate(548.5 656.5)"><tspan x="0" y="0">Remap</tspan></text>
    <path class="cls-1" d="M229,652.5h86"/>
    <path class="cls-1" d="M427,652.5h93"/>
    <path class="cls-1" d="M213,557.5c82.5,37.5-183.22,67.48-80,95"/>
    <path class="cls-1" d="M405,557.5c79.5,59.19-170.78,42-90,95"/>
    <path class="cls-1" d="M576,557.5c102,50.89-145.12,47.5-56,95"/>
  </g>
  <ellipse class="cls-39" cx="951.8" cy="279.5" rx="160" ry="130"/>
  <path class="cls-22" d="M1049.88,227.84h32.72v33.81h-32.7v33.01h-16.21v31.84h-16.49v-31.84h-16.21v31.84h-16.49v-31.84h-65.4v31.84h-16.48v-31.84h-16.22v31.84h-16.49v-31.84h-16.21v-33.02h-32.7v-33.79h32.7v-64.85h196.18v64.84ZM886.4,227.84h16.22v-31.03h-16.22v31.03ZM1000.96,227.84h16.24v-31.03h-16.24v31.03Z"/>
  <text class="cls-32" transform="translate(917.84 350.5)"><tspan x="0" y="0">CLAUDE</tspan></text>
  <text class="cls-30" transform="translate(921.22 367.5)"><tspan x="0" y="0">DESKTOP</tspan></text>
  <text class="cls-35" transform="translate(907.44 385)"><tspan x="0" y="0">● CONNECTED</tspan></text>
  <text class="cls-28" transform="translate(752.15 568.5)"><tspan x="0" y="0">AI FOR GRASSHOPPER</tspan></text>
  <g>
    <circle class="cls-18" cx="876.32" cy="462.13" r="7.02"/>
    <path class="cls-27" d="M695.11,434h151.71c16.29,0,29.5,13.21,29.5,29.5h0c0,16.29-13.21,29.5-29.5,29.5h-151.71c-16.29,0-29.5-13.21-29.5-29.5h0c0-16.29,13.21-29.5,29.5-29.5Z"/>
    <circle class="cls-40" cx="699.32" cy="463.5" r="10.54"/>
    <circle class="cls-31" cx="699.32" cy="463.5" r="18.96"/>
    <text class="cls-33" transform="translate(724.6 471.03)"><tspan x="0" y="0">GH AGENT</tspan></text>
  </g>
</svg>